<?xml version="1.0" encoding="UTF-8"?>
<svg width="41px" height="40px" viewBox="0 0 41 40" version="1.1" xmlns="http://www.w3.org/2000/svg" xmlns:xlink="http://www.w3.org/1999/xlink">
    <!-- Generator: Sketch 51.2 (57519) - http://www.bohemiancoding.com/sketch -->
    <title>Android/Adaptive App Icon/App Icon Front</title>
    <desc>Created with Sketch.</desc>
    <defs></defs>
    <g id="3-Review" stroke="none" stroke-width="1" fill="none" fill-rule="evenodd">
        <g id="No-Mask" transform="translate(-33.000000, -34.000000)">
            <g id="Icon">
                <g id="Android---Adaptive-App-Icon-Front">
                    <rect id="Base" x="0" y="0" width="108" height="108"></rect>
                    <g id="Icon" stroke-width="1" fill-rule="evenodd">
                        <rect id="Base" x="0" y="0" width="108" height="108"></rect>
                        <g id="Text" transform="translate(33.000000, 34.000000)" fill="#FFFFFF">
                            <path d="M40.1511462,39.6296296 L38.402024,39.6296296 L36.3197357,35.4161465 L34.4456762,35.4161465 L34.4456762,39.6296296 L32.9464286,39.6296296 L32.9464286,29.6296296 L36.7778391,29.6296296 C38.6518986,29.6296296 39.8457439,30.8515397 39.8457439,32.5509779 C39.8457439,33.9976072 38.9850647,34.8824386 37.8745109,35.2054723 L40.1511462,39.6296296 Z M38.3464963,32.5650229 C38.3464963,31.5678319 37.6662821,30.9919892 36.6667837,30.9919892 L34.4456762,30.9919892 L34.4456762,34.1240117 L36.6667837,34.1240117 C37.6662821,34.1240117 38.3464963,33.5622139 38.3464963,32.5650229 Z" id="R"></path>
                            <polygon id="T" points="23.0481039 30.9919892 20.3272472 30.9919892 20.3272472 39.6296296 18.8279996 39.6296296 18.8279996 30.9919892 16.1071429 30.9919892 16.1071429 29.6296296 23.0481039 29.6296296"></polygon>
                            <path d="M7.2047176,39.6296296 L5.45559541,39.6296296 L3.37330708,35.4161465 L1.49924759,35.4161465 L1.49924759,39.6296296 L0,39.6296296 L0,29.6296296 L3.83141051,29.6296296 C5.70547,29.6296296 6.89931531,30.8515397 6.89931531,32.5509779 C6.89931531,33.9976072 6.03863614,34.8824386 4.92808236,35.2054723 L7.2047176,39.6296296 Z M5.40006772,32.5650229 C5.40006772,31.5678319 4.71985353,30.9919892 3.72035514,30.9919892 L1.49924759,30.9919892 L1.49924759,34.1240117 L3.72035514,34.1240117 C4.71985353,34.1240117 5.40006772,33.5622139 5.40006772,32.5650229 Z" id="R"></path>
                            <polygon id="N" points="40.3871388 24.8148148 39.0128286 24.8148148 34.4456762 17.778298 34.4456762 24.8148148 32.9464286 24.8148148 32.9464286 14.8148148 34.3207389 14.8148148 38.8878913 21.8372867 38.8878913 14.8148148 40.3871388 14.8148148"></polygon>
                            <path d="M23.1514897,19.4142623 L23.1514897,20.9197872 C23.1514897,22.2043176 22.9194085,22.9916104 22.2777723,23.6960303 C21.554225,24.4695109 20.6395521,24.8148148 19.6020126,24.8148148 C18.5235177,24.8148148 17.7317112,24.4695109 17.090075,23.8203397 C16.1344465,22.8534888 16.1071429,21.8728259 16.1071429,19.8148148 C16.1071429,17.7568038 16.1344465,16.7761408 17.090075,15.80929 C17.7317112,15.1601187 18.5235177,14.8148148 19.6020126,14.8148148 C21.6497879,14.8148148 22.8648012,16.1960303 23.1241861,17.8534888 L21.6497879,17.8534888 C21.390403,16.7623286 20.6941594,16.1407817 19.6020126,16.1407817 C19.0149837,16.1407817 18.5371695,16.347964 18.1549181,16.7485165 C17.6634521,17.2733784 17.581541,17.867301 17.581541,19.8148148 C17.581541,21.7623286 17.6634521,22.3562513 18.1549181,22.8811132 C18.5371695,23.2816656 19.0149837,23.488848 19.6020126,23.488848 C20.2436489,23.488848 20.8170259,23.2402292 21.1992773,22.7844281 C21.5678769,22.3562513 21.6770916,21.886638 21.6770916,21.2374667 L21.6770916,20.6849806 L19.6020126,20.6849806 L19.6020126,19.4142623 L23.1514897,19.4142623 Z" id="G"></path>
                            <polygon id="K" points="7.70446679 24.8148148 5.94146268 24.8148148 3.16507825 19.8850395 1.49924759 21.9075114 1.49924759 24.8148148 0 24.8148148 0 14.8148148 1.49924759 14.8148148 1.49924759 19.8429047 5.53888694 14.8148148 7.37130066 14.8148148 4.16457665 18.7333541"></polygon>
                            <path d="M38.4344663,6.97513812 L39.9088644,6.97513812 C39.5675686,8.92265193 38.2296887,10 36.4412983,10 C35.3628034,10 34.5709969,9.65469613 33.9293607,9.00552486 C32.9737322,8.03867403 32.9464286,7.05801105 32.9464286,5 C32.9464286,2.94198895 32.9737322,1.96132597 33.9293607,0.994475138 C34.5709969,0.345303867 35.3628034,0 36.4412983,0 C38.2433406,0 39.5675686,1.07734807 39.9088644,3.02486188 L38.4071626,3.02486188 C38.1887332,2.01657459 37.5334451,1.32596685 36.4412983,1.32596685 C35.8542694,1.32596685 35.3764552,1.53314917 35.0078557,1.93370166 C34.5027378,2.44475138 34.4208268,3.06629834 34.4208268,5 C34.4208268,6.93370166 34.5027378,7.55524862 35.0078557,8.06629834 C35.3764552,8.46685083 35.8542694,8.67403315 36.4412983,8.67403315 C37.5334451,8.67403315 38.2023851,7.98342541 38.4344663,6.97513812 Z" id="C"></path>
                            <polygon id="L" points="23.1000326 10 16.8392857 10 16.8392857 0 18.3385333 0 18.3385333 8.63764045 23.1000326 8.63764045"></polygon>
                            <path d="M6.74742857,4.82666667 C6.74742857,6.54666667 6.70789286,7.46666667 6.14121429,8.29333333 L7.06371429,9.21333333 L6.273,10 L5.33732143,9.06666667 C4.82335714,9.44 4.16442857,9.65333333 3.37371429,9.65333333 C2.33260714,9.65333333 1.56825,9.32 0.948857143,8.69333333 C0.0263571429,7.76 0,6.81333333 0,4.82666667 C0,2.84 0.0263571429,1.89333333 0.948857143,0.96 C1.56825,0.333333333 2.33260714,0 3.37371429,0 C4.41482143,0 5.17917857,0.333333333 5.79857143,0.96 C6.72107143,1.89333333 6.74742857,2.84 6.74742857,4.82666667 Z M5.32414286,4.82666667 C5.32414286,2.94666667 5.24507143,2.37333333 4.77064286,1.86666667 C4.40164286,1.48 3.94039286,1.28 3.37371429,1.28 C2.80703571,1.28 2.34578571,1.48 1.97678571,1.86666667 C1.48917857,2.36 1.42328571,2.96 1.42328571,4.82666667 C1.42328571,6.69333333 1.48917857,7.28 1.97678571,7.77333333 C2.33260714,8.14666667 2.80703571,8.37333333 3.37371429,8.37333333 C3.75589286,8.37333333 4.07217857,8.26666667 4.34892857,8.05333333 L3.34735714,7.05333333 L4.13807143,6.25333333 L5.04739286,7.18666667 C5.29778571,6.69333333 5.32414286,6.05333333 5.32414286,4.82666667 Z" id="Q"></path>
                        </g>
                    </g>
                </g>
            </g>
        </g>
    </g>
</svg>